<mxfile host="65bd71144e">
    <diagram id="6ist5rnRfGk7ry0EH4B1" name="Page-1">
        <mxGraphModel dx="716" dy="784" grid="1" gridSize="10" guides="1" tooltips="1" connect="1" arrows="1" fold="1" page="1" pageScale="1" pageWidth="827" pageHeight="1169" math="0" shadow="0">
            <root>
                <mxCell id="0"/>
                <mxCell id="1" parent="0"/>
                <mxCell id="18" value="ja" style="edgeStyle=none;html=1;" edge="1" parent="1" source="2" target="4">
                    <mxGeometry relative="1" as="geometry"/>
                </mxCell>
                <mxCell id="23" value="" style="edgeStyle=none;html=1;" edge="1" parent="1" source="2">
                    <mxGeometry relative="1" as="geometry">
                        <mxPoint x="310" y="440" as="targetPoint"/>
                        <Array as="points">
                            <mxPoint x="580" y="215"/>
                            <mxPoint x="580" y="440"/>
                        </Array>
                    </mxGeometry>
                </mxCell>
                <mxCell id="24" value="nein" style="edgeLabel;html=1;align=center;verticalAlign=middle;resizable=0;points=[];" vertex="1" connectable="0" parent="23">
                    <mxGeometry x="-0.1007" y="3" relative="1" as="geometry">
                        <mxPoint as="offset"/>
                    </mxGeometry>
                </mxCell>
                <mxCell id="2" value="a&amp;gt;b" style="rhombus;whiteSpace=wrap;html=1;" vertex="1" parent="1">
                    <mxGeometry x="270" y="170" width="80" height="90" as="geometry"/>
                </mxCell>
                <mxCell id="28" value="" style="edgeStyle=none;html=1;" edge="1" parent="1" source="3" target="2">
                    <mxGeometry relative="1" as="geometry"/>
                </mxCell>
                <mxCell id="3" value="Start" style="rounded=1;whiteSpace=wrap;html=1;" vertex="1" parent="1">
                    <mxGeometry x="250" y="60" width="120" height="60" as="geometry"/>
                </mxCell>
                <mxCell id="21" style="edgeStyle=none;html=1;entryX=0.425;entryY=-0.067;entryDx=0;entryDy=0;entryPerimeter=0;startArrow=none;" edge="1" parent="1" source="22" target="5">
                    <mxGeometry relative="1" as="geometry"/>
                </mxCell>
                <mxCell id="4" value="Anweisung" style="rounded=0;whiteSpace=wrap;html=1;" vertex="1" parent="1">
                    <mxGeometry x="250" y="340" width="120" height="60" as="geometry"/>
                </mxCell>
                <mxCell id="5" value="Stop" style="rounded=1;whiteSpace=wrap;html=1;arcSize=0;" vertex="1" parent="1">
                    <mxGeometry x="260" y="470" width="120" height="60" as="geometry"/>
                </mxCell>
                <mxCell id="22" value="" style="shape=waypoint;sketch=0;size=6;pointerEvents=1;points=[];fillColor=default;resizable=0;rotatable=0;perimeter=centerPerimeter;snapToPoint=1;" vertex="1" parent="1">
                    <mxGeometry x="290" y="420" width="40" height="40" as="geometry"/>
                </mxCell>
                <mxCell id="27" value="" style="edgeStyle=none;html=1;entryDx=0;entryDy=0;entryPerimeter=0;endArrow=none;" edge="1" parent="1" source="4" target="22">
                    <mxGeometry relative="1" as="geometry">
                        <mxPoint x="310.3125651177329" y="400" as="sourcePoint"/>
                        <mxPoint x="311" y="465.98" as="targetPoint"/>
                    </mxGeometry>
                </mxCell>
            </root>
        </mxGraphModel>
    </diagram>
    <diagram id="FNySLTGVLJdpbwXTld8U" name="Page-2">
        <mxGraphModel dx="716" dy="784" grid="1" gridSize="10" guides="1" tooltips="1" connect="1" arrows="1" fold="1" page="1" pageScale="1" pageWidth="827" pageHeight="1169" math="0" shadow="0">
            <root>
                <mxCell id="VTPuBFXd0StZeDJvUZ3l-0"/>
                <mxCell id="VTPuBFXd0StZeDJvUZ3l-1" parent="VTPuBFXd0StZeDJvUZ3l-0"/>
                <mxCell id="prppDGbNHCVW3HivBfCB-12" value="" style="edgeStyle=none;html=1;" edge="1" parent="VTPuBFXd0StZeDJvUZ3l-1" source="prppDGbNHCVW3HivBfCB-3" target="prppDGbNHCVW3HivBfCB-11">
                    <mxGeometry relative="1" as="geometry">
                        <Array as="points">
                            <mxPoint x="510" y="225"/>
                        </Array>
                    </mxGeometry>
                </mxCell>
                <mxCell id="prppDGbNHCVW3HivBfCB-16" value="nein" style="edgeLabel;html=1;align=center;verticalAlign=middle;resizable=0;points=[];" vertex="1" connectable="0" parent="prppDGbNHCVW3HivBfCB-12">
                    <mxGeometry x="-0.2314" y="-2" relative="1" as="geometry">
                        <mxPoint as="offset"/>
                    </mxGeometry>
                </mxCell>
                <mxCell id="prppDGbNHCVW3HivBfCB-14" value="" style="edgeStyle=none;html=1;" edge="1" parent="VTPuBFXd0StZeDJvUZ3l-1" source="prppDGbNHCVW3HivBfCB-3" target="prppDGbNHCVW3HivBfCB-7">
                    <mxGeometry relative="1" as="geometry">
                        <Array as="points">
                            <mxPoint x="140" y="225"/>
                        </Array>
                    </mxGeometry>
                </mxCell>
                <mxCell id="prppDGbNHCVW3HivBfCB-15" value="ja" style="edgeLabel;html=1;align=center;verticalAlign=middle;resizable=0;points=[];" vertex="1" connectable="0" parent="prppDGbNHCVW3HivBfCB-14">
                    <mxGeometry x="-0.3882" y="2" relative="1" as="geometry">
                        <mxPoint as="offset"/>
                    </mxGeometry>
                </mxCell>
                <mxCell id="prppDGbNHCVW3HivBfCB-3" value="a &amp;gt; b" style="rhombus;whiteSpace=wrap;html=1;" vertex="1" parent="VTPuBFXd0StZeDJvUZ3l-1">
                    <mxGeometry x="270" y="170" width="90" height="110" as="geometry"/>
                </mxCell>
                <mxCell id="prppDGbNHCVW3HivBfCB-4" value="" style="edgeStyle=none;html=1;" edge="1" parent="VTPuBFXd0StZeDJvUZ3l-1" source="prppDGbNHCVW3HivBfCB-5" target="prppDGbNHCVW3HivBfCB-3">
                    <mxGeometry relative="1" as="geometry"/>
                </mxCell>
                <mxCell id="prppDGbNHCVW3HivBfCB-5" value="Start" style="rounded=1;whiteSpace=wrap;html=1;" vertex="1" parent="VTPuBFXd0StZeDJvUZ3l-1">
                    <mxGeometry x="255" y="60" width="120" height="60" as="geometry"/>
                </mxCell>
                <mxCell id="prppDGbNHCVW3HivBfCB-17" style="edgeStyle=none;html=1;" edge="1" parent="VTPuBFXd0StZeDJvUZ3l-1" source="prppDGbNHCVW3HivBfCB-7">
                    <mxGeometry relative="1" as="geometry">
                        <mxPoint x="300" y="520" as="targetPoint"/>
                        <Array as="points">
                            <mxPoint x="140" y="520"/>
                        </Array>
                    </mxGeometry>
                </mxCell>
                <mxCell id="prppDGbNHCVW3HivBfCB-7" value="Anweisung" style="rounded=0;whiteSpace=wrap;html=1;" vertex="1" parent="VTPuBFXd0StZeDJvUZ3l-1">
                    <mxGeometry x="80" y="350" width="120" height="60" as="geometry"/>
                </mxCell>
                <mxCell id="prppDGbNHCVW3HivBfCB-8" value="Stop" style="rounded=1;whiteSpace=wrap;html=1;arcSize=0;" vertex="1" parent="VTPuBFXd0StZeDJvUZ3l-1">
                    <mxGeometry x="225" y="580" width="150" height="80" as="geometry"/>
                </mxCell>
                <mxCell id="prppDGbNHCVW3HivBfCB-18" style="edgeStyle=none;html=1;" edge="1" parent="VTPuBFXd0StZeDJvUZ3l-1" source="prppDGbNHCVW3HivBfCB-11">
                    <mxGeometry relative="1" as="geometry">
                        <mxPoint x="300" y="520" as="targetPoint"/>
                        <Array as="points">
                            <mxPoint x="510" y="520"/>
                        </Array>
                    </mxGeometry>
                </mxCell>
                <mxCell id="prppDGbNHCVW3HivBfCB-11" value="Anweisung" style="rounded=0;whiteSpace=wrap;html=1;" vertex="1" parent="VTPuBFXd0StZeDJvUZ3l-1">
                    <mxGeometry x="450" y="330" width="120" height="60" as="geometry"/>
                </mxCell>
            </root>
        </mxGraphModel>
    </diagram>
</mxfile>